<svg xmlns="http://www.w3.org/2000/svg" version="1.1" xmlns:xlink="http://www.w3.org/1999/xlink" width="1000" height="1000"><g clip-path="url(#SvgjsClipPath1372)"><rect width="1000" height="1000" fill="#ffffff"></rect><g transform="matrix(15.625,0,0,15.625,0,0)"><svg xmlns="http://www.w3.org/2000/svg" version="1.1" xmlns:xlink="http://www.w3.org/1999/xlink" width="64" height="64"><svg xmlns="http://www.w3.org/2000/svg" viewBox="0 0 64 64" width="64" height="64" role="img" aria-label="Liturgical calendar favicon - circular missal badge">

    <!-- base circle with subtle stroke to read on all backgrounds -->
    <circle cx="32" cy="32" r="32" fill="#ffffff" stroke="#111" stroke-opacity="0.05"></circle>

    <!-- stylized quadrant stripes inside an inset circle for the liturgical color motif -->
    <g transform="translate(2,2) scale(0.94)">
        <!-- draw 4 triangular wedges to get crisp quadrants inside a circle -->
        <path d="M32 32 L32 0 A32 32 0 0 1 64 32 Z" fill="#2E7D32"></path>
        <!-- top-left: purple -->
        <path d="M32 32 L0 32 A32 32 0 0 1 32 0 Z" fill="#5B2C6F"></path>
        <!-- bottom-left: red -->
        <path d="M32 32 L0 32 A32 32 0 0 0 32 64 Z" fill="#C62828"></path>
        <!-- bottom-right: gold -->
        <path d="M32 32 L64 32 A32 32 0 0 1 32 64 Z" fill="#D4AF37"></path>
    </g>

    <!-- closed book / missal silhouette (center) -->
    <g transform="translate(18,16) scale(1.5)">
        <!-- ribbon bookmarks peeking at bottom (2E7D32) -->
        <g transform="translate(0,28)">
            <rect x="1" y="-4" width="1" height="7" rx="0.5" fill="#D4AF37"></rect>
            <rect x="1.75" y="-3" width="1" height="7" rx="0.5" fill="#5B2C6F"></rect>
            <rect x="3.25" y="-4" width="1" height="7" rx="0.5" fill="#FF0808"></rect>
            <rect x="2.5" y="-3.5" width="1" height="7" rx="0.5" fill="#2E7D32"></rect>

        </g>

        <rect x="0" y="0" width="18" height="28" rx="2" ry="2" fill="#222" stroke="#111" stroke-opacity="0.08"></rect>
        <rect x="0" y="0" width="9" height="28" rx="1" ry="1" fill="#222" stroke="#111" stroke-opacity="0.08"></rect>

        <!-- tiny cross on cover -->
        <g transform="translate(6.25,5)">
            <rect x="0" y="2" width="6" height="2" rx="0.5" fill="#D4AF37"></rect>
            <rect x="2" y="0" width="2" height="10" rx="0.5" fill="#D4AF37"></rect>
        </g>

        <!---
        text -->
        <g transform="translate(9,19)">
        <text x="0" y="0" font-family="serif" font-size="4" fill="#F4CF57" text-anchor="middle" dominant-baseline="middle">
            OF
        </text>
        <text x="-5" y="5" font-family="serif" font-size="4" fill="#F4CF57" text-anchor="middle" dominant-baseline="middle">
            EF
        </text>
        <text x="5" y="5" font-family="serif" font-size="4" fill="#F4CF57" text-anchor="middle" dominant-baseline="middle">
            '55
        </text>
        <text x="5" y="5" font-family="serif" font-size="4" fill="#F4CF57" text-anchor="middle" dominant-baseline="middle">
            '55
        </text>
    </g>
    </g>
</svg></svg></g></g><defs><clipPath id="SvgjsClipPath1372"><rect width="1000" height="1000" x="0" y="0" rx="500" ry="500"></rect></clipPath></defs></svg>